<?xml version="1.0" encoding="UTF-8" standalone="no"?>
<!DOCTYPE svg PUBLIC "-//W3C//DTD SVG 1.1//EN"
 "http://www.w3.org/Graphics/SVG/1.1/DTD/svg11.dtd">
<!-- Generated by graphviz version 2.26.3 (20100126.1600)
 -->
<!-- Title: graph_33 Pages: 1 -->
<svg width="294pt" height="120pt"
 viewBox="0.00 0.00 294.00 120.00" xmlns="http://www.w3.org/2000/svg" xmlns:xlink="http://www.w3.org/1999/xlink">
<g id="graph1" class="graph" transform="scale(1 1) rotate(0) translate(4 116)">
<title>graph_33</title>
<polygon fill="white" stroke="white" points="-4,5 -4,-116 291,-116 291,5 -4,5"/>
<!-- node_33_1 -->
<g id="node1" class="node"><title>node_33_1</title>
<ellipse fill="none" stroke="red" cx="143" cy="-93" rx="142.836" ry="19.0919"/>
<text text-anchor="middle" x="143" y="-89.9" font-family="Times Roman,serif" font-size="14.00" fill="green">&lt;html&#45;style label for node_33_1&gt;</text>
</g>
<!-- node_33_2 -->
<g id="node2" class="node"><title>node_33_2</title>
<ellipse fill="none" stroke="green" cx="143" cy="-19" rx="142.836" ry="19.0919"/>
<text text-anchor="middle" x="143" y="-15.9" font-family="Times Roman,serif" font-size="14.00" fill="red">&lt;html&#45;style label for node_33_2&gt;</text>
</g>
<!-- node_33_1&#45;&gt;node_33_2 -->
<g id="edge2" class="edge"><title>node_33_1&#45;&gt;node_33_2</title>
<path fill="none" stroke="blue" d="M143,-61.8787C143,-57.3686 143,-52.739 143,-48.2671"/>
<polygon fill="blue" stroke="blue" points="143,-61.9432 147,-67.9432 143,-73.9432 139,-67.9431 143,-61.9432"/>
<polygon fill="blue" stroke="blue" points="143,-48.2495 147.5,-38.2494 143,-43.2495 143,-38.2495 143,-38.2495 143,-38.2495 143,-43.2495 138.5,-38.2495 143,-48.2495 143,-48.2495"/>
</g>
</g>
</svg>
