<?xml version="1.0" encoding="UTF-8" standalone="no"?>
<!DOCTYPE svg PUBLIC "-//W3C//DTD SVG 1.1//EN"
 "http://www.w3.org/Graphics/SVG/1.1/DTD/svg11.dtd">
<!-- Generated by graphviz version 2.26.3 (20100126.1600)
 -->
<!-- Title: G Pages: 1 -->
<svg width="336pt" height="284pt"
 viewBox="0.00 0.00 336.00 284.00" xmlns="http://www.w3.org/2000/svg" xmlns:xlink="http://www.w3.org/1999/xlink">
<g id="graph1" class="graph" transform="scale(1 1) rotate(0) translate(4 280)">
<title>G</title>
<polygon fill="white" stroke="white" points="-4,5 -4,-280 333,-280 333,5 -4,5"/>
<g id="graph2" class="cluster"><title>cluster_c0</title>
<polygon fill="none" stroke="black" points="8,-8 8,-210 170,-210 170,-8 8,-8"/>
</g>
<g id="graph3" class="cluster"><title>cluster_c1</title>
<polygon fill="none" stroke="black" points="178,-82 178,-210 320,-210 320,-82 178,-82"/>
</g>
<!-- a0 -->
<g id="node2" class="node"><title>a0</title>
<ellipse fill="none" stroke="black" cx="135" cy="-183" rx="27" ry="19.0919"/>
<text text-anchor="middle" x="135" y="-179.9" font-family="Times Roman,serif" font-size="14.00">a0</text>
</g>
<!-- a1 -->
<g id="node4" class="node"><title>a1</title>
<ellipse fill="none" stroke="black" cx="115" cy="-109" rx="27" ry="19.0919"/>
<text text-anchor="middle" x="115" y="-105.9" font-family="Times Roman,serif" font-size="14.00">a1</text>
</g>
<!-- a0&#45;&gt;a1 -->
<g id="edge3" class="edge"><title>a0&#45;&gt;a1</title>
<path fill="none" stroke="black" d="M129.953,-164.327C127.75,-156.176 125.118,-146.438 122.681,-137.42"/>
<polygon fill="black" stroke="black" points="126.033,-136.408 120.045,-127.667 119.276,-138.234 126.033,-136.408"/>
</g>
<!-- a3 -->
<g id="node7" class="node"><title>a3</title>
<ellipse fill="none" stroke="black" cx="115" cy="-35" rx="27" ry="19.0919"/>
<text text-anchor="middle" x="115" y="-31.9" font-family="Times Roman,serif" font-size="14.00">a3</text>
</g>
<!-- a1&#45;&gt;a3 -->
<g id="edge16" class="edge"><title>a1&#45;&gt;a3</title>
<path fill="none" stroke="black" d="M115,-89.9432C115,-82.1493 115,-72.9538 115,-64.3381"/>
<polygon fill="black" stroke="black" points="118.5,-64.2494 115,-54.2495 111.5,-64.2495 118.5,-64.2494"/>
</g>
<!-- a2 -->
<g id="node5" class="node"><title>a2</title>
<ellipse fill="none" stroke="black" cx="43" cy="-109" rx="27" ry="19.0919"/>
<text text-anchor="middle" x="43" y="-105.9" font-family="Times Roman,serif" font-size="14.00">a2</text>
</g>
<!-- a2&#45;&gt;a3 -->
<g id="edge5" class="edge"><title>a2&#45;&gt;a3</title>
<path fill="none" stroke="black" d="M58.2693,-93.3065C68.2247,-83.0746 81.3886,-69.545 92.5295,-58.0947"/>
<polygon fill="black" stroke="black" points="95.0394,-60.534 99.5044,-50.926 90.0223,-55.6525 95.0394,-60.534"/>
</g>
<!-- a3&#45;&gt;a0 -->
<g id="edge18" class="edge"><title>a3&#45;&gt;a0</title>
<path fill="none" stroke="black" d="M130.956,-50.3897C138.61,-58.8933 146.974,-70.1242 151,-82 159.131,-105.986 153.231,-134.603 146.413,-155.241"/>
<polygon fill="black" stroke="black" points="143.111,-154.082 143.05,-164.677 149.705,-156.432 143.111,-154.082"/>
</g>
<!-- b0 -->
<g id="node9" class="node"><title>b0</title>
<ellipse fill="none" stroke="black" cx="285" cy="-183" rx="27" ry="19.0919"/>
<text text-anchor="middle" x="285" y="-179.9" font-family="Times Roman,serif" font-size="14.00">b0</text>
</g>
<!-- b1 -->
<g id="node11" class="node"><title>b1</title>
<ellipse fill="none" stroke="black" cx="285" cy="-109" rx="27" ry="19.0919"/>
<text text-anchor="middle" x="285" y="-105.9" font-family="Times Roman,serif" font-size="14.00">b1</text>
</g>
<!-- b0&#45;&gt;b1 -->
<g id="edge8" class="edge"><title>b0&#45;&gt;b1</title>
<path fill="none" stroke="black" d="M285,-163.943C285,-156.149 285,-146.954 285,-138.338"/>
<polygon fill="black" stroke="black" points="288.5,-138.249 285,-128.249 281.5,-138.249 288.5,-138.249"/>
</g>
<!-- b2 -->
<g id="node12" class="node"><title>b2</title>
<ellipse fill="none" stroke="black" cx="213" cy="-183" rx="27" ry="19.0919"/>
<text text-anchor="middle" x="213" y="-179.9" font-family="Times Roman,serif" font-size="14.00">b2</text>
</g>
<!-- b3 -->
<g id="node14" class="node"><title>b3</title>
<ellipse fill="none" stroke="black" cx="213" cy="-109" rx="27" ry="19.0919"/>
<text text-anchor="middle" x="213" y="-105.9" font-family="Times Roman,serif" font-size="14.00">b3</text>
</g>
<!-- b2&#45;&gt;b3 -->
<g id="edge10" class="edge"><title>b2&#45;&gt;b3</title>
<path fill="none" stroke="black" d="M213,-163.943C213,-156.149 213,-146.954 213,-138.338"/>
<polygon fill="black" stroke="black" points="216.5,-138.249 213,-128.249 209.5,-138.249 216.5,-138.249"/>
</g>
<!-- x -->
<g id="node15" class="node"><title>x</title>
<ellipse fill="none" stroke="black" cx="210" cy="-257" rx="27" ry="19.0919"/>
<text text-anchor="middle" x="210" y="-253.9" font-family="Times Roman,serif" font-size="14.00">x</text>
</g>
<!-- x&#45;&gt;a0 -->
<g id="edge12" class="edge"><title>x&#45;&gt;a0</title>
<path fill="none" stroke="black" d="M194.094,-241.307C183.654,-231.005 169.825,-217.361 158.17,-205.861"/>
<polygon fill="black" stroke="black" points="160.459,-203.203 150.883,-198.671 155.543,-208.186 160.459,-203.203"/>
</g>
<!-- x&#45;&gt;b0 -->
<g id="edge14" class="edge"><title>x&#45;&gt;b0</title>
<path fill="none" stroke="black" d="M225.906,-241.307C236.346,-231.005 250.175,-217.361 261.83,-205.861"/>
<polygon fill="black" stroke="black" points="264.457,-208.186 269.117,-198.671 259.541,-203.203 264.457,-208.186"/>
</g>
</g>
</svg>
