<?xml version="1.0" encoding="UTF-8" standalone="no"?>
<!DOCTYPE svg PUBLIC "-//W3C//DTD SVG 1.1//EN"
 "http://www.w3.org/Graphics/SVG/1.1/DTD/svg11.dtd">
<!-- Generated by graphviz version 2.26.3 (20100126.1600)
 -->
<!-- Title: G Pages: 1 -->
<svg width="316pt" height="210pt"
 viewBox="0.00 0.00 316.00 210.00" xmlns="http://www.w3.org/2000/svg" xmlns:xlink="http://www.w3.org/1999/xlink">
<g id="graph1" class="graph" transform="scale(1 1) rotate(0) translate(4 206)">
<title>G</title>
<polygon fill="white" stroke="white" points="-4,5 -4,-206 313,-206 313,5 -4,5"/>
<g id="graph2" class="cluster"><title>cluster_c0</title>
<polygon fill="none" stroke="black" points="8,-8 8,-136 150,-136 150,-8 8,-8"/>
</g>
<g id="graph3" class="cluster"><title>cluster_c1</title>
<polygon fill="none" stroke="black" points="158,-8 158,-136 300,-136 300,-8 158,-8"/>
</g>
<!-- a0 -->
<g id="node2" class="node"><title>a0</title>
<ellipse fill="none" stroke="black" cx="115" cy="-109" rx="27" ry="19.0919"/>
<text text-anchor="middle" x="115" y="-105.9" font-family="Times Roman,serif" font-size="14.00">a0</text>
</g>
<!-- a1 -->
<g id="node4" class="node"><title>a1</title>
<ellipse fill="none" stroke="black" cx="115" cy="-35" rx="27" ry="19.0919"/>
<text text-anchor="middle" x="115" y="-31.9" font-family="Times Roman,serif" font-size="14.00">a1</text>
</g>
<!-- a0&#45;&gt;a1 -->
<g id="edge3" class="edge"><title>a0&#45;&gt;a1</title>
<path fill="none" stroke="black" d="M115,-89.9432C115,-82.1493 115,-72.9538 115,-64.3381"/>
<polygon fill="black" stroke="black" points="118.5,-64.2494 115,-54.2495 111.5,-64.2495 118.5,-64.2494"/>
</g>
<!-- b3 -->
<g id="node14" class="node"><title>b3</title>
<ellipse fill="none" stroke="black" cx="193" cy="-35" rx="27" ry="19.0919"/>
<text text-anchor="middle" x="193" y="-31.9" font-family="Times Roman,serif" font-size="14.00">b3</text>
</g>
<!-- a1&#45;&gt;b3 -->
<g id="edge16" class="edge"><title>a1&#45;&gt;b3</title>
<path fill="none" stroke="black" d="M142.117,-35C146.714,-35 151.31,-35 155.906,-35"/>
<polygon fill="black" stroke="black" points="155.969,-38.5001 165.969,-35 155.968,-31.5001 155.969,-38.5001"/>
</g>
<!-- a2 -->
<g id="node5" class="node"><title>a2</title>
<ellipse fill="none" stroke="black" cx="43" cy="-109" rx="27" ry="19.0919"/>
<text text-anchor="middle" x="43" y="-105.9" font-family="Times Roman,serif" font-size="14.00">a2</text>
</g>
<!-- a3 -->
<g id="node7" class="node"><title>a3</title>
<ellipse fill="none" stroke="black" cx="43" cy="-35" rx="27" ry="19.0919"/>
<text text-anchor="middle" x="43" y="-31.9" font-family="Times Roman,serif" font-size="14.00">a3</text>
</g>
<!-- a2&#45;&gt;a3 -->
<g id="edge5" class="edge"><title>a2&#45;&gt;a3</title>
<path fill="none" stroke="black" d="M43,-89.9432C43,-82.1493 43,-72.9538 43,-64.3381"/>
<polygon fill="black" stroke="black" points="46.5001,-64.2494 43,-54.2495 39.5001,-64.2495 46.5001,-64.2494"/>
</g>
<!-- b0 -->
<g id="node9" class="node"><title>b0</title>
<ellipse fill="none" stroke="black" cx="265" cy="-109" rx="27" ry="19.0919"/>
<text text-anchor="middle" x="265" y="-105.9" font-family="Times Roman,serif" font-size="14.00">b0</text>
</g>
<!-- b1 -->
<g id="node11" class="node"><title>b1</title>
<ellipse fill="none" stroke="black" cx="265" cy="-35" rx="27" ry="19.0919"/>
<text text-anchor="middle" x="265" y="-31.9" font-family="Times Roman,serif" font-size="14.00">b1</text>
</g>
<!-- b0&#45;&gt;b1 -->
<g id="edge8" class="edge"><title>b0&#45;&gt;b1</title>
<path fill="none" stroke="black" d="M265,-89.9432C265,-82.1493 265,-72.9538 265,-64.3381"/>
<polygon fill="black" stroke="black" points="268.5,-64.2494 265,-54.2495 261.5,-64.2495 268.5,-64.2494"/>
</g>
<!-- b1&#45;&gt;a3 -->
<g id="edge18" class="edge"><title>b1&#45;&gt;a3</title>
<path fill="none" stroke="black" d="M250.467,-51.3785C242.381,-59.2394 231.616,-67.8376 220,-72 164.772,-91.7897 143.228,-91.7897 88,-72 79.8324,-69.0733 72.0858,-63.9536 65.3952,-58.4392"/>
<polygon fill="black" stroke="black" points="67.3116,-55.4561 57.5329,-51.3785 62.6345,-60.6642 67.3116,-55.4561"/>
</g>
<!-- b2 -->
<g id="node12" class="node"><title>b2</title>
<ellipse fill="none" stroke="black" cx="193" cy="-109" rx="27" ry="19.0919"/>
<text text-anchor="middle" x="193" y="-105.9" font-family="Times Roman,serif" font-size="14.00">b2</text>
</g>
<!-- b2&#45;&gt;b3 -->
<g id="edge10" class="edge"><title>b2&#45;&gt;b3</title>
<path fill="none" stroke="black" d="M193,-89.9432C193,-82.1493 193,-72.9538 193,-64.3381"/>
<polygon fill="black" stroke="black" points="196.5,-64.2494 193,-54.2495 189.5,-64.2495 196.5,-64.2494"/>
</g>
<!-- x -->
<g id="node15" class="node"><title>x</title>
<ellipse fill="none" stroke="black" cx="190" cy="-183" rx="27" ry="19.0919"/>
<text text-anchor="middle" x="190" y="-179.9" font-family="Times Roman,serif" font-size="14.00">x</text>
</g>
<!-- x&#45;&gt;a0 -->
<g id="edge12" class="edge"><title>x&#45;&gt;a0</title>
<path fill="none" stroke="black" d="M174.094,-167.307C163.654,-157.005 149.825,-143.361 138.17,-131.861"/>
<polygon fill="black" stroke="black" points="140.459,-129.203 130.883,-124.671 135.543,-134.186 140.459,-129.203"/>
</g>
<!-- x&#45;&gt;b0 -->
<g id="edge14" class="edge"><title>x&#45;&gt;b0</title>
<path fill="none" stroke="black" d="M205.906,-167.307C216.346,-157.005 230.175,-143.361 241.83,-131.861"/>
<polygon fill="black" stroke="black" points="244.457,-134.186 249.117,-124.671 239.541,-129.203 244.457,-134.186"/>
</g>
</g>
</svg>
