<?xml version="1.0" encoding="UTF-8" standalone="no"?>
<!DOCTYPE svg PUBLIC "-//W3C//DTD SVG 1.1//EN"
 "http://www.w3.org/Graphics/SVG/1.1/DTD/svg11.dtd">
<!-- Generated by graphviz version 2.26.3 (20100126.1600)
 -->
<!-- Title: G Pages: 1 -->
<svg width="264pt" height="462pt"
 viewBox="0.00 0.00 264.00 462.00" xmlns="http://www.w3.org/2000/svg" xmlns:xlink="http://www.w3.org/1999/xlink">
<g id="graph1" class="graph" transform="scale(1 1) rotate(0) translate(4 458)">
<title>G</title>
<polygon fill="white" stroke="white" points="-4,5 -4,-458 261,-458 261,5 -4,5"/>
<g id="graph2" class="cluster"><title>cluster_0</title>
<polygon fill="lightgrey" stroke="lightgrey" points="8,-82 8,-392 98,-392 98,-82 8,-82"/>
<text text-anchor="middle" x="53" y="-375.4" font-family="Times Roman,serif" font-size="14.00">process #1</text>
</g>
<g id="graph3" class="cluster"><title>cluster_1</title>
<polygon fill="none" stroke="blue" points="106,-8 106,-237 248,-237 248,-8 106,-8"/>
<text text-anchor="middle" x="177" y="-220.4" font-family="Times Roman,serif" font-size="14.00">process #2</text>
</g>
<!-- a0 -->
<g id="node2" class="node"><title>a0</title>
<ellipse fill="white" stroke="white" cx="63" cy="-338" rx="27" ry="19.0919"/>
<text text-anchor="middle" x="63" y="-334.9" font-family="Times Roman,serif" font-size="14.00">a0</text>
</g>
<!-- a1 -->
<g id="node4" class="node"><title>a1</title>
<ellipse fill="white" stroke="white" cx="63" cy="-264" rx="27" ry="19.0919"/>
<text text-anchor="middle" x="63" y="-260.9" font-family="Times Roman,serif" font-size="14.00">a1</text>
</g>
<!-- a0&#45;&gt;a1 -->
<g id="edge3" class="edge"><title>a0&#45;&gt;a1</title>
<path fill="none" stroke="black" d="M63,-318.943C63,-311.149 63,-301.954 63,-293.338"/>
<polygon fill="black" stroke="black" points="66.5001,-293.249 63,-283.249 59.5001,-293.249 66.5001,-293.249"/>
</g>
<!-- a2 -->
<g id="node5" class="node"><title>a2</title>
<ellipse fill="white" stroke="white" cx="63" cy="-183" rx="27" ry="19.0919"/>
<text text-anchor="middle" x="63" y="-179.9" font-family="Times Roman,serif" font-size="14.00">a2</text>
</g>
<!-- a1&#45;&gt;a2 -->
<g id="edge4" class="edge"><title>a1&#45;&gt;a2</title>
<path fill="none" stroke="black" d="M63,-244.804C63,-235.12 63,-223.164 63,-212.356"/>
<polygon fill="black" stroke="black" points="66.5001,-212.058 63,-202.058 59.5001,-212.058 66.5001,-212.058"/>
</g>
<!-- b3 -->
<g id="node12" class="node"><title>b3</title>
<ellipse fill="lightgrey" stroke="black" cx="141" cy="-183" rx="27" ry="19.0919"/>
<text text-anchor="middle" x="141" y="-179.9" font-family="Times Roman,serif" font-size="14.00">b3</text>
</g>
<!-- a1&#45;&gt;b3 -->
<g id="edge15" class="edge"><title>a1&#45;&gt;b3</title>
<path fill="none" stroke="black" d="M83.8484,-251.485C90.0311,-247.282 96.5896,-242.304 102,-237 110.386,-228.779 118.256,-218.584 124.699,-209.274"/>
<polygon fill="black" stroke="black" points="127.772,-210.973 130.41,-200.712 121.949,-207.089 127.772,-210.973"/>
</g>
<!-- a3 -->
<g id="node6" class="node"><title>a3</title>
<ellipse fill="white" stroke="white" cx="63" cy="-109" rx="27" ry="19.0919"/>
<text text-anchor="middle" x="63" y="-105.9" font-family="Times Roman,serif" font-size="14.00">a3</text>
</g>
<!-- a2&#45;&gt;a3 -->
<g id="edge5" class="edge"><title>a2&#45;&gt;a3</title>
<path fill="none" stroke="black" d="M63,-163.943C63,-156.149 63,-146.954 63,-138.338"/>
<polygon fill="black" stroke="black" points="66.5001,-138.249 63,-128.249 59.5001,-138.249 66.5001,-138.249"/>
</g>
<!-- a3&#45;&gt;a0 -->
<g id="edge19" class="edge"><title>a3&#45;&gt;a0</title>
<path fill="none" stroke="black" d="M48.5027,-125.523C40.4565,-135.822 31.2393,-149.783 27,-164 11.8874,-214.684 11.8874,-232.316 27,-283 30.2126,-293.774 36.2839,-304.401 42.5379,-313.398"/>
<polygon fill="black" stroke="black" points="39.7472,-315.511 48.5027,-321.477 45.3785,-311.353 39.7472,-315.511"/>
</g>
<!-- end -->
<g id="node20" class="node"><title>end</title>
<polygon fill="none" stroke="black" points="89,-53 53,-53 53,-17 89,-17 89,-53"/>
<polyline fill="none" stroke="black" points="65,-53 53,-41 "/>
<polyline fill="none" stroke="black" points="53,-29 65,-17 "/>
<polyline fill="none" stroke="black" points="77,-17 89,-29 "/>
<polyline fill="none" stroke="black" points="89,-41 77,-53 "/>
<text text-anchor="middle" x="71" y="-31.9" font-family="Times Roman,serif" font-size="14.00">end</text>
</g>
<!-- a3&#45;&gt;end -->
<g id="edge21" class="edge"><title>a3&#45;&gt;end</title>
<path fill="none" stroke="black" d="M65.0602,-89.9432C65.9387,-81.8174 66.9818,-72.1682 67.9469,-63.2408"/>
<polygon fill="black" stroke="black" points="71.4343,-63.5451 69.0295,-53.2269 64.4749,-62.7927 71.4343,-63.5451"/>
</g>
<!-- b0 -->
<g id="node8" class="node"><title>b0</title>
<ellipse fill="lightgrey" stroke="black" cx="213" cy="-183" rx="27" ry="19.0919"/>
<text text-anchor="middle" x="213" y="-179.9" font-family="Times Roman,serif" font-size="14.00">b0</text>
</g>
<!-- b1 -->
<g id="node10" class="node"><title>b1</title>
<ellipse fill="lightgrey" stroke="black" cx="203" cy="-109" rx="27" ry="19.0919"/>
<text text-anchor="middle" x="203" y="-105.9" font-family="Times Roman,serif" font-size="14.00">b1</text>
</g>
<!-- b0&#45;&gt;b1 -->
<g id="edge8" class="edge"><title>b0&#45;&gt;b1</title>
<path fill="none" stroke="black" d="M210.425,-163.943C209.363,-156.088 208.109,-146.81 206.937,-138.136"/>
<polygon fill="black" stroke="black" points="210.374,-137.433 205.567,-127.992 203.437,-138.371 210.374,-137.433"/>
</g>
<!-- b2 -->
<g id="node11" class="node"><title>b2</title>
<ellipse fill="lightgrey" stroke="black" cx="157" cy="-35" rx="27" ry="19.0919"/>
<text text-anchor="middle" x="157" y="-31.9" font-family="Times Roman,serif" font-size="14.00">b2</text>
</g>
<!-- b1&#45;&gt;b2 -->
<g id="edge9" class="edge"><title>b1&#45;&gt;b2</title>
<path fill="none" stroke="black" d="M192.099,-91.463C186.484,-82.4316 179.526,-71.2373 173.289,-61.2038"/>
<polygon fill="black" stroke="black" points="176.075,-59.0562 167.823,-52.4111 170.13,-62.7517 176.075,-59.0562"/>
</g>
<!-- b2&#45;&gt;a3 -->
<g id="edge17" class="edge"><title>b2&#45;&gt;a3</title>
<path fill="none" stroke="black" d="M138.931,-49.2241C124.772,-60.371 104.879,-76.0315 89.0063,-88.5269"/>
<polygon fill="black" stroke="black" points="86.8166,-85.7963 81.1241,-94.7321 91.1465,-91.2965 86.8166,-85.7963"/>
</g>
<!-- b3&#45;&gt;end -->
<g id="edge23" class="edge"><title>b3&#45;&gt;end</title>
<path fill="none" stroke="black" d="M135.105,-164.238C128.301,-143.558 116.206,-109.57 102,-82 98.491,-75.1899 94.2249,-68.1444 89.9943,-61.6459"/>
<polygon fill="black" stroke="black" points="92.8017,-59.5482 84.3216,-53.1969 86.99,-63.4502 92.8017,-59.5482"/>
</g>
<!-- start -->
<g id="node13" class="node"><title>start</title>
<polygon fill="none" stroke="black" points="114,-454 74,-427 114,-400 154,-427 114,-454"/>
<polyline fill="none" stroke="black" points="83.9462,-433.714 83.9462,-420.286 "/>
<polyline fill="none" stroke="black" points="104.054,-406.714 123.946,-406.714 "/>
<polyline fill="none" stroke="black" points="144.054,-420.286 144.054,-433.714 "/>
<polyline fill="none" stroke="black" points="123.946,-447.286 104.054,-447.286 "/>
<text text-anchor="middle" x="114" y="-423.9" font-family="Times Roman,serif" font-size="14.00">start</text>
</g>
<!-- start&#45;&gt;a0 -->
<g id="edge11" class="edge"><title>start&#45;&gt;a0</title>
<path fill="none" stroke="black" d="M102.681,-407.248C95.5284,-394.765 86.1925,-378.473 78.3733,-364.828"/>
<polygon fill="black" stroke="black" points="81.2565,-362.82 73.2478,-355.883 75.183,-366.3 81.2565,-362.82"/>
</g>
<!-- start&#45;&gt;b0 -->
<g id="edge13" class="edge"><title>start&#45;&gt;b0</title>
<path fill="none" stroke="black" d="M122.612,-405.773C140.525,-361.625 181.785,-259.933 201.76,-210.703"/>
<polygon fill="black" stroke="black" points="205.054,-211.893 205.571,-201.311 198.568,-209.261 205.054,-211.893"/>
</g>
</g>
</svg>
