<?xml version="1.0" encoding="UTF-8" standalone="no"?>
<!DOCTYPE svg PUBLIC "-//W3C//DTD SVG 1.1//EN"
 "http://www.w3.org/Graphics/SVG/1.1/DTD/svg11.dtd">
<!-- Generated by graphviz version 2.26.3 (20100126.1600)
 -->
<!-- Title: Petersen Pages: 1 -->
<svg width="196pt" height="548pt"
 viewBox="0.00 0.00 196.45 548.00" xmlns="http://www.w3.org/2000/svg" xmlns:xlink="http://www.w3.org/1999/xlink">
<g id="graph1" class="graph" transform="scale(1 1) rotate(0) translate(4 544)">
<title>Petersen</title>
<polygon fill="white" stroke="white" points="-4,5 -4,-544 193.447,-544 193.447,5 -4,5"/>
<!-- 0 -->
<g id="node1" class="node"><title>0</title>
<ellipse fill="none" stroke="black" cx="17" cy="-450" rx="17.1726" ry="17.6777"/>
<text text-anchor="middle" x="17" y="-445.4" font-family="Arial" font-size="14.00">0</text>
</g>
<!-- 1 -->
<g id="node3" class="node"><title>1</title>
<ellipse fill="none" stroke="black" cx="159" cy="-378" rx="17.1726" ry="17.6777"/>
<text text-anchor="middle" x="159" y="-373.4" font-family="Arial" font-size="14.00">1</text>
</g>
<!-- 0&#45;&#45;1 -->
<g id="edge2" class="edge"><title>0&#45;&#45;1</title>
<path fill="none" stroke="black" d="M32.4668,-442.158C59.7817,-428.308 116.251,-399.676 143.552,-385.833"/>
</g>
<!-- 5 -->
<g id="node9" class="node"><title>5</title>
<ellipse fill="none" stroke="black" cx="17" cy="-90" rx="17.1726" ry="17.6777"/>
<text text-anchor="middle" x="17" y="-85.4" font-family="Arial" font-size="14.00">5</text>
</g>
<!-- 0&#45;&#45;5 -->
<g id="edge8" class="edge"><title>0&#45;&#45;5</title>
<path fill="none" stroke="red" d="M17,-432.265C17,-405.087 17,-351.5 17,-306 17,-306 17,-306 17,-234 17,-188.5 17,-134.913 17,-107.735"/>
</g>
<!-- 2 -->
<g id="node4" class="node"><title>2</title>
<ellipse fill="none" stroke="black" cx="107" cy="-306" rx="17.1726" ry="17.6777"/>
<text text-anchor="middle" x="107" y="-301.4" font-family="Arial" font-size="14.00">2</text>
</g>
<!-- 1&#45;&#45;2 -->
<g id="edge3" class="edge"><title>1&#45;&#45;2</title>
<path fill="none" stroke="black" d="M148.726,-363.775C139.61,-351.153 126.362,-332.809 117.252,-320.195"/>
</g>
<!-- 6 -->
<g id="node11" class="node"><title>6</title>
<ellipse fill="none" stroke="black" cx="159" cy="-306" rx="17.1726" ry="17.6777"/>
<text text-anchor="middle" x="159" y="-301.4" font-family="Arial" font-size="14.00">6</text>
</g>
<!-- 1&#45;&#45;6 -->
<g id="edge10" class="edge"><title>1&#45;&#45;6</title>
<path fill="none" stroke="red" d="M159,-360.202C159,-349.042 159,-334.714 159,-323.593"/>
</g>
<!-- 3 -->
<g id="node5" class="node"><title>3</title>
<ellipse fill="none" stroke="black" cx="62" cy="-234" rx="17.1726" ry="17.6777"/>
<text text-anchor="middle" x="62" y="-229.4" font-family="Arial" font-size="14.00">3</text>
</g>
<!-- 2&#45;&#45;3 -->
<g id="edge4" class="edge"><title>2&#45;&#45;3</title>
<path fill="none" stroke="black" d="M97.676,-291.082C89.9529,-278.725 79.0319,-261.251 71.3121,-248.899"/>
</g>
<!-- 7 -->
<g id="node13" class="node"><title>7</title>
<ellipse fill="none" stroke="black" cx="107" cy="-18" rx="17.1726" ry="17.6777"/>
<text text-anchor="middle" x="107" y="-13.4" font-family="Arial" font-size="14.00">7</text>
</g>
<!-- 2&#45;&#45;7 -->
<g id="edge12" class="edge"><title>2&#45;&#45;7</title>
<path fill="none" stroke="red" d="M107,-288.418C107,-237.002 107,-87.3061 107,-35.718"/>
</g>
<!-- 8 -->
<g id="node15" class="node"><title>8</title>
<ellipse fill="none" stroke="black" cx="62" cy="-162" rx="17.1726" ry="17.6777"/>
<text text-anchor="middle" x="62" y="-157.4" font-family="Arial" font-size="14.00">8</text>
</g>
<!-- 3&#45;&#45;8 -->
<g id="edge14" class="edge"><title>3&#45;&#45;8</title>
<path fill="none" stroke="red" d="M62,-216.202C62,-205.042 62,-190.714 62,-179.593"/>
</g>
<!-- 4 -->
<g id="node6" class="node"><title>4</title>
<ellipse fill="none" stroke="black" cx="136" cy="-522" rx="17.1726" ry="17.6777"/>
<text text-anchor="middle" x="136" y="-517.4" font-family="Arial" font-size="14.00">4</text>
</g>
<!-- 4&#45;&#45;0 -->
<g id="edge6" class="edge"><title>4&#45;&#45;0</title>
<path fill="none" stroke="blue" d="M120.929,-512.881C98.0384,-499.032 54.7663,-472.85 31.9491,-459.045"/>
</g>
<!-- 9 -->
<g id="node17" class="node"><title>9</title>
<ellipse fill="none" stroke="black" cx="136" cy="-450" rx="17.1726" ry="17.6777"/>
<text text-anchor="middle" x="136" y="-445.4" font-family="Arial" font-size="14.00">9</text>
</g>
<!-- 4&#45;&#45;9 -->
<g id="edge16" class="edge"><title>4&#45;&#45;9</title>
<path fill="none" stroke="red" d="M136,-504.202C136,-493.042 136,-478.714 136,-467.593"/>
</g>
<!-- 5&#45;&#45;7 -->
<g id="edge18" class="edge"><title>5&#45;&#45;7</title>
<path fill="none" stroke="black" d="M30.6691,-79.0647C47.6834,-65.4533 76.5606,-42.3515 93.4972,-28.8022"/>
</g>
<!-- 8&#45;&#45;5 -->
<g id="edge22" class="edge"><title>8&#45;&#45;5</title>
<path fill="none" stroke="black" d="M52.676,-147.082C44.9529,-134.725 34.0319,-117.251 26.3121,-104.899"/>
</g>
<!-- 9&#45;&#45;6 -->
<g id="edge20" class="edge"><title>9&#45;&#45;6</title>
<path fill="none" stroke="black" d="M150.259,-439.393C162.095,-429.622 178.07,-413.951 185,-396 195.017,-370.055 180.051,-338.615 169.009,-320.596"/>
</g>
</g>
</svg>
