<?xml version="1.0" encoding="UTF-8" standalone="no"?>
<!DOCTYPE svg PUBLIC "-//W3C//DTD SVG 1.1//EN"
 "http://www.w3.org/Graphics/SVG/1.1/DTD/svg11.dtd">
<!-- Generated by graphviz version 2.26.3 (20100126.1600)
 -->
<!-- Title: G Pages: 1 -->
<svg width="244pt" height="260pt"
 viewBox="0.00 0.00 244.00 260.00" xmlns="http://www.w3.org/2000/svg" xmlns:xlink="http://www.w3.org/1999/xlink">
<g id="graph1" class="graph" transform="scale(1 1) rotate(0) translate(4 256)">
<title>G</title>
<polygon fill="white" stroke="white" points="-4,5 -4,-256 241,-256 241,5 -4,5"/>
<g id="graph2" class="cluster"><title>cluster_small</title>
<polygon fill="none" stroke="black" points="158,-8 158,-163 228,-163 228,-8 158,-8"/>
<text text-anchor="middle" x="193" y="-146.4" font-family="Times Roman,serif" font-size="14.00">small</text>
</g>
<g id="graph3" class="cluster"><title>cluster_big</title>
<polygon fill="none" stroke="black" points="8,-8 8,-244 150,-244 150,-8 8,-8"/>
<text text-anchor="middle" x="79" y="-227.4" font-family="Times Roman,serif" font-size="14.00">big</text>
</g>
<!-- a -->
<g id="node2" class="node"><title>a</title>
<ellipse fill="none" stroke="black" cx="193" cy="-109" rx="27" ry="19.0919"/>
<text text-anchor="middle" x="193" y="-105.9" font-family="Times Roman,serif" font-size="14.00">a</text>
</g>
<!-- b -->
<g id="node4" class="node"><title>b</title>
<ellipse fill="none" stroke="black" cx="193" cy="-35" rx="27" ry="19.0919"/>
<text text-anchor="middle" x="193" y="-31.9" font-family="Times Roman,serif" font-size="14.00">b</text>
</g>
<!-- a&#45;&gt;b -->
<g id="edge3" class="edge"><title>a&#45;&gt;b</title>
<path fill="none" stroke="black" d="M193,-89.9432C193,-82.1493 193,-72.9538 193,-64.3381"/>
<polygon fill="black" stroke="black" points="196.5,-64.2494 193,-54.2495 189.5,-64.2495 196.5,-64.2494"/>
</g>
<!-- q -->
<g id="node8" class="node"><title>q</title>
<ellipse fill="none" stroke="black" cx="115" cy="-35" rx="27" ry="19.0919"/>
<text text-anchor="middle" x="115" y="-31.9" font-family="Times Roman,serif" font-size="14.00">q</text>
</g>
<!-- b&#45;&gt;q -->
<g id="edge14" class="edge"><title>b&#45;&gt;q</title>
<path fill="none" stroke="black" d="M165.969,-35C161.372,-35 156.776,-35 152.179,-35"/>
<polygon fill="black" stroke="black" points="152.117,-31.5001 142.117,-35 152.117,-38.5001 152.117,-31.5001"/>
</g>
<!-- p -->
<g id="node6" class="node"><title>p</title>
<ellipse fill="none" stroke="black" cx="115" cy="-109" rx="27" ry="19.0919"/>
<text text-anchor="middle" x="115" y="-105.9" font-family="Times Roman,serif" font-size="14.00">p</text>
</g>
<!-- p&#45;&gt;q -->
<g id="edge6" class="edge"><title>p&#45;&gt;q</title>
<path fill="none" stroke="black" d="M115,-89.9432C115,-82.1493 115,-72.9538 115,-64.3381"/>
<polygon fill="black" stroke="black" points="118.5,-64.2494 115,-54.2495 111.5,-64.2495 118.5,-64.2494"/>
</g>
<!-- r -->
<g id="node9" class="node"><title>r</title>
<ellipse fill="none" stroke="black" cx="43" cy="-190" rx="27" ry="19.0919"/>
<text text-anchor="middle" x="43" y="-186.9" font-family="Times Roman,serif" font-size="14.00">r</text>
</g>
<!-- s -->
<g id="node11" class="node"><title>s</title>
<ellipse fill="none" stroke="black" cx="43" cy="-109" rx="27" ry="19.0919"/>
<text text-anchor="middle" x="43" y="-105.9" font-family="Times Roman,serif" font-size="14.00">s</text>
</g>
<!-- r&#45;&gt;s -->
<g id="edge8" class="edge"><title>r&#45;&gt;s</title>
<path fill="none" stroke="black" d="M43,-170.804C43,-161.12 43,-149.164 43,-138.356"/>
<polygon fill="black" stroke="black" points="46.5001,-138.058 43,-128.058 39.5001,-138.058 46.5001,-138.058"/>
</g>
<!-- t -->
<g id="node12" class="node"><title>t</title>
<ellipse fill="none" stroke="black" cx="115" cy="-190" rx="27" ry="19.0919"/>
<text text-anchor="middle" x="115" y="-186.9" font-family="Times Roman,serif" font-size="14.00">t</text>
</g>
<!-- t&#45;&gt;a -->
<g id="edge12" class="edge"><title>t&#45;&gt;a</title>
<path fill="none" stroke="black" d="M135.848,-177.485C142.031,-173.282 148.59,-168.304 154,-163 162.386,-154.779 170.256,-144.584 176.699,-135.274"/>
<polygon fill="black" stroke="black" points="179.772,-136.973 182.41,-126.712 173.949,-133.089 179.772,-136.973"/>
</g>
<!-- t&#45;&gt;p -->
<g id="edge10" class="edge"><title>t&#45;&gt;p</title>
<path fill="none" stroke="black" d="M115,-170.804C115,-161.12 115,-149.164 115,-138.356"/>
<polygon fill="black" stroke="black" points="118.5,-138.058 115,-128.058 111.5,-138.058 118.5,-138.058"/>
</g>
</g>
</svg>
