<?xml version="1.0" encoding="UTF-8" standalone="no"?>
<!DOCTYPE svg PUBLIC "-//W3C//DTD SVG 1.1//EN"
 "http://www.w3.org/Graphics/SVG/1.1/DTD/svg11.dtd">
<!-- Generated by graphviz version 2.26.3 (20100126.1600)
 -->
<!-- Title: _anonymous_0 Pages: 1 -->
<svg width="208pt" height="432pt"
 viewBox="0.00 0.00 208.16 432.00" xmlns="http://www.w3.org/2000/svg" xmlns:xlink="http://www.w3.org/1999/xlink">
<g id="graph1" class="graph" transform="scale(0.626996 0.626996) rotate(0) translate(4 685)">
<title>_anonymous_0</title>
<polygon fill="white" stroke="white" points="-4,5 -4,-685 329,-685 329,5 -4,5"/>
<text text-anchor="middle" x="162" y="-10.4" font-family="Times Roman,serif" font-size="14.00">Paths of length 3 starting from node 5</text>
<!-- 1 -->
<g id="node1" class="node"><title>1</title>
<ellipse fill="none" stroke="black" cx="27" cy="-46" rx="27" ry="19.0919"/>
<text text-anchor="middle" x="27" y="-42.9" font-family="Times Roman,serif" font-size="14.00">5</text>
</g>
<!-- 2 -->
<g id="node2" class="node"><title>2</title>
<ellipse fill="none" stroke="black" cx="117" cy="-46" rx="27" ry="19.0919"/>
<text text-anchor="middle" x="117" y="-42.9" font-family="Times Roman,serif" font-size="14.00">8</text>
</g>
<!-- 1&#45;&gt;2 -->
<g id="edge2" class="edge"><title>1&#45;&gt;2</title>
<path fill="none" stroke="black" d="M54.003,-46C62.0277,-46 70.9665,-46 79.5309,-46"/>
<polygon fill="black" stroke="black" points="79.7051,-49.5001 89.705,-46 79.705,-42.5001 79.7051,-49.5001"/>
</g>
<!-- 3 -->
<g id="node3" class="node"><title>3</title>
<ellipse fill="none" stroke="black" cx="207" cy="-46" rx="27" ry="19.0919"/>
<text text-anchor="middle" x="207" y="-42.9" font-family="Times Roman,serif" font-size="14.00">6</text>
</g>
<!-- 2&#45;&gt;3 -->
<g id="edge3" class="edge"><title>2&#45;&gt;3</title>
<path fill="none" stroke="black" d="M144.003,-46C152.028,-46 160.967,-46 169.531,-46"/>
<polygon fill="black" stroke="black" points="169.705,-49.5001 179.705,-46 169.705,-42.5001 169.705,-49.5001"/>
</g>
<!-- 4 -->
<g id="node4" class="node"><title>4</title>
<ellipse fill="none" stroke="black" cx="297" cy="-46" rx="27" ry="19.0919"/>
<text text-anchor="middle" x="297" y="-42.9" font-family="Times Roman,serif" font-size="14.00">9</text>
</g>
<!-- 3&#45;&gt;4 -->
<g id="edge4" class="edge"><title>3&#45;&gt;4</title>
<path fill="none" stroke="black" d="M234.003,-46C242.028,-46 250.967,-46 259.531,-46"/>
<polygon fill="black" stroke="black" points="259.705,-49.5001 269.705,-46 259.705,-42.5001 259.705,-49.5001"/>
</g>
<!-- 5 -->
<g id="node5" class="node"><title>5</title>
<ellipse fill="none" stroke="black" cx="27" cy="-102" rx="27" ry="19.0919"/>
<text text-anchor="middle" x="27" y="-98.9" font-family="Times Roman,serif" font-size="14.00">5</text>
</g>
<!-- 6 -->
<g id="node6" class="node"><title>6</title>
<ellipse fill="none" stroke="black" cx="117" cy="-102" rx="27" ry="19.0919"/>
<text text-anchor="middle" x="117" y="-98.9" font-family="Times Roman,serif" font-size="14.00">8</text>
</g>
<!-- 5&#45;&gt;6 -->
<g id="edge6" class="edge"><title>5&#45;&gt;6</title>
<path fill="none" stroke="black" d="M54.003,-102C62.0277,-102 70.9665,-102 79.5309,-102"/>
<polygon fill="black" stroke="black" points="79.7051,-105.5 89.705,-102 79.705,-98.5001 79.7051,-105.5"/>
</g>
<!-- 7 -->
<g id="node7" class="node"><title>7</title>
<ellipse fill="none" stroke="black" cx="207" cy="-102" rx="27" ry="19.0919"/>
<text text-anchor="middle" x="207" y="-98.9" font-family="Times Roman,serif" font-size="14.00">6</text>
</g>
<!-- 6&#45;&gt;7 -->
<g id="edge7" class="edge"><title>6&#45;&gt;7</title>
<path fill="none" stroke="black" d="M144.003,-102C152.028,-102 160.967,-102 169.531,-102"/>
<polygon fill="black" stroke="black" points="169.705,-105.5 179.705,-102 169.705,-98.5001 169.705,-105.5"/>
</g>
<!-- 8 -->
<g id="node8" class="node"><title>8</title>
<ellipse fill="none" stroke="black" cx="297" cy="-102" rx="27" ry="19.0919"/>
<text text-anchor="middle" x="297" y="-98.9" font-family="Times Roman,serif" font-size="14.00">1</text>
</g>
<!-- 7&#45;&gt;8 -->
<g id="edge8" class="edge"><title>7&#45;&gt;8</title>
<path fill="none" stroke="black" d="M234.003,-102C242.028,-102 250.967,-102 259.531,-102"/>
<polygon fill="black" stroke="black" points="259.705,-105.5 269.705,-102 259.705,-98.5001 259.705,-105.5"/>
</g>
<!-- 9 -->
<g id="node9" class="node"><title>9</title>
<ellipse fill="none" stroke="black" cx="27" cy="-158" rx="27" ry="19.0919"/>
<text text-anchor="middle" x="27" y="-154.9" font-family="Times Roman,serif" font-size="14.00">5</text>
</g>
<!-- 10 -->
<g id="node10" class="node"><title>10</title>
<ellipse fill="none" stroke="black" cx="117" cy="-158" rx="27" ry="19.0919"/>
<text text-anchor="middle" x="117" y="-154.9" font-family="Times Roman,serif" font-size="14.00">8</text>
</g>
<!-- 9&#45;&gt;10 -->
<g id="edge10" class="edge"><title>9&#45;&gt;10</title>
<path fill="none" stroke="black" d="M54.003,-158C62.0277,-158 70.9665,-158 79.5309,-158"/>
<polygon fill="black" stroke="black" points="79.7051,-161.5 89.705,-158 79.705,-154.5 79.7051,-161.5"/>
</g>
<!-- 11 -->
<g id="node11" class="node"><title>11</title>
<ellipse fill="none" stroke="black" cx="207" cy="-158" rx="27" ry="19.0919"/>
<text text-anchor="middle" x="207" y="-154.9" font-family="Times Roman,serif" font-size="14.00">3</text>
</g>
<!-- 10&#45;&gt;11 -->
<g id="edge11" class="edge"><title>10&#45;&gt;11</title>
<path fill="none" stroke="black" d="M144.003,-158C152.028,-158 160.967,-158 169.531,-158"/>
<polygon fill="black" stroke="black" points="169.705,-161.5 179.705,-158 169.705,-154.5 169.705,-161.5"/>
</g>
<!-- 12 -->
<g id="node12" class="node"><title>12</title>
<ellipse fill="none" stroke="black" cx="297" cy="-158" rx="27" ry="19.0919"/>
<text text-anchor="middle" x="297" y="-154.9" font-family="Times Roman,serif" font-size="14.00">4</text>
</g>
<!-- 11&#45;&gt;12 -->
<g id="edge12" class="edge"><title>11&#45;&gt;12</title>
<path fill="none" stroke="black" d="M234.003,-158C242.028,-158 250.967,-158 259.531,-158"/>
<polygon fill="black" stroke="black" points="259.705,-161.5 269.705,-158 259.705,-154.5 259.705,-161.5"/>
</g>
<!-- 13 -->
<g id="node13" class="node"><title>13</title>
<ellipse fill="none" stroke="black" cx="27" cy="-214" rx="27" ry="19.0919"/>
<text text-anchor="middle" x="27" y="-210.9" font-family="Times Roman,serif" font-size="14.00">5</text>
</g>
<!-- 14 -->
<g id="node14" class="node"><title>14</title>
<ellipse fill="none" stroke="black" cx="117" cy="-214" rx="27" ry="19.0919"/>
<text text-anchor="middle" x="117" y="-210.9" font-family="Times Roman,serif" font-size="14.00">8</text>
</g>
<!-- 13&#45;&gt;14 -->
<g id="edge14" class="edge"><title>13&#45;&gt;14</title>
<path fill="none" stroke="black" d="M54.003,-214C62.0277,-214 70.9665,-214 79.5309,-214"/>
<polygon fill="black" stroke="black" points="79.7051,-217.5 89.705,-214 79.705,-210.5 79.7051,-217.5"/>
</g>
<!-- 15 -->
<g id="node15" class="node"><title>15</title>
<ellipse fill="none" stroke="black" cx="207" cy="-214" rx="27" ry="19.0919"/>
<text text-anchor="middle" x="207" y="-210.9" font-family="Times Roman,serif" font-size="14.00">3</text>
</g>
<!-- 14&#45;&gt;15 -->
<g id="edge15" class="edge"><title>14&#45;&gt;15</title>
<path fill="none" stroke="black" d="M144.003,-214C152.028,-214 160.967,-214 169.531,-214"/>
<polygon fill="black" stroke="black" points="169.705,-217.5 179.705,-214 169.705,-210.5 169.705,-217.5"/>
</g>
<!-- 16 -->
<g id="node16" class="node"><title>16</title>
<ellipse fill="none" stroke="black" cx="297" cy="-214" rx="27" ry="19.0919"/>
<text text-anchor="middle" x="297" y="-210.9" font-family="Times Roman,serif" font-size="14.00">2</text>
</g>
<!-- 15&#45;&gt;16 -->
<g id="edge16" class="edge"><title>15&#45;&gt;16</title>
<path fill="none" stroke="black" d="M234.003,-214C242.028,-214 250.967,-214 259.531,-214"/>
<polygon fill="black" stroke="black" points="259.705,-217.5 269.705,-214 259.705,-210.5 259.705,-217.5"/>
</g>
<!-- 17 -->
<g id="node17" class="node"><title>17</title>
<ellipse fill="none" stroke="black" cx="27" cy="-270" rx="27" ry="19.0919"/>
<text text-anchor="middle" x="27" y="-266.9" font-family="Times Roman,serif" font-size="14.00">5</text>
</g>
<!-- 18 -->
<g id="node18" class="node"><title>18</title>
<ellipse fill="none" stroke="black" cx="117" cy="-270" rx="27" ry="19.0919"/>
<text text-anchor="middle" x="117" y="-266.9" font-family="Times Roman,serif" font-size="14.00">7</text>
</g>
<!-- 17&#45;&gt;18 -->
<g id="edge18" class="edge"><title>17&#45;&gt;18</title>
<path fill="none" stroke="black" d="M54.003,-270C62.0277,-270 70.9665,-270 79.5309,-270"/>
<polygon fill="black" stroke="black" points="79.7051,-273.5 89.705,-270 79.705,-266.5 79.7051,-273.5"/>
</g>
<!-- 19 -->
<g id="node19" class="node"><title>19</title>
<ellipse fill="none" stroke="black" cx="207" cy="-270" rx="27" ry="19.0919"/>
<text text-anchor="middle" x="207" y="-266.9" font-family="Times Roman,serif" font-size="14.00">9</text>
</g>
<!-- 18&#45;&gt;19 -->
<g id="edge19" class="edge"><title>18&#45;&gt;19</title>
<path fill="none" stroke="black" d="M144.003,-270C152.028,-270 160.967,-270 169.531,-270"/>
<polygon fill="black" stroke="black" points="169.705,-273.5 179.705,-270 169.705,-266.5 169.705,-273.5"/>
</g>
<!-- 20 -->
<g id="node20" class="node"><title>20</title>
<ellipse fill="none" stroke="black" cx="297" cy="-270" rx="27" ry="19.0919"/>
<text text-anchor="middle" x="297" y="-266.9" font-family="Times Roman,serif" font-size="14.00">6</text>
</g>
<!-- 19&#45;&gt;20 -->
<g id="edge20" class="edge"><title>19&#45;&gt;20</title>
<path fill="none" stroke="black" d="M234.003,-270C242.028,-270 250.967,-270 259.531,-270"/>
<polygon fill="black" stroke="black" points="259.705,-273.5 269.705,-270 259.705,-266.5 259.705,-273.5"/>
</g>
<!-- 21 -->
<g id="node21" class="node"><title>21</title>
<ellipse fill="none" stroke="black" cx="27" cy="-326" rx="27" ry="19.0919"/>
<text text-anchor="middle" x="27" y="-322.9" font-family="Times Roman,serif" font-size="14.00">5</text>
</g>
<!-- 22 -->
<g id="node22" class="node"><title>22</title>
<ellipse fill="none" stroke="black" cx="117" cy="-326" rx="27" ry="19.0919"/>
<text text-anchor="middle" x="117" y="-322.9" font-family="Times Roman,serif" font-size="14.00">7</text>
</g>
<!-- 21&#45;&gt;22 -->
<g id="edge22" class="edge"><title>21&#45;&gt;22</title>
<path fill="none" stroke="black" d="M54.003,-326C62.0277,-326 70.9665,-326 79.5309,-326"/>
<polygon fill="black" stroke="black" points="79.7051,-329.5 89.705,-326 79.705,-322.5 79.7051,-329.5"/>
</g>
<!-- 23 -->
<g id="node23" class="node"><title>23</title>
<ellipse fill="none" stroke="black" cx="207" cy="-326" rx="27" ry="19.0919"/>
<text text-anchor="middle" x="207" y="-322.9" font-family="Times Roman,serif" font-size="14.00">9</text>
</g>
<!-- 22&#45;&gt;23 -->
<g id="edge23" class="edge"><title>22&#45;&gt;23</title>
<path fill="none" stroke="black" d="M144.003,-326C152.028,-326 160.967,-326 169.531,-326"/>
<polygon fill="black" stroke="black" points="169.705,-329.5 179.705,-326 169.705,-322.5 169.705,-329.5"/>
</g>
<!-- 24 -->
<g id="node24" class="node"><title>24</title>
<ellipse fill="none" stroke="black" cx="297" cy="-326" rx="27" ry="19.0919"/>
<text text-anchor="middle" x="297" y="-322.9" font-family="Times Roman,serif" font-size="14.00">4</text>
</g>
<!-- 23&#45;&gt;24 -->
<g id="edge24" class="edge"><title>23&#45;&gt;24</title>
<path fill="none" stroke="black" d="M234.003,-326C242.028,-326 250.967,-326 259.531,-326"/>
<polygon fill="black" stroke="black" points="259.705,-329.5 269.705,-326 259.705,-322.5 259.705,-329.5"/>
</g>
<!-- 25 -->
<g id="node25" class="node"><title>25</title>
<ellipse fill="none" stroke="black" cx="27" cy="-382" rx="27" ry="19.0919"/>
<text text-anchor="middle" x="27" y="-378.9" font-family="Times Roman,serif" font-size="14.00">5</text>
</g>
<!-- 26 -->
<g id="node26" class="node"><title>26</title>
<ellipse fill="none" stroke="black" cx="117" cy="-382" rx="27" ry="19.0919"/>
<text text-anchor="middle" x="117" y="-378.9" font-family="Times Roman,serif" font-size="14.00">7</text>
</g>
<!-- 25&#45;&gt;26 -->
<g id="edge26" class="edge"><title>25&#45;&gt;26</title>
<path fill="none" stroke="black" d="M54.003,-382C62.0277,-382 70.9665,-382 79.5309,-382"/>
<polygon fill="black" stroke="black" points="79.7051,-385.5 89.705,-382 79.705,-378.5 79.7051,-385.5"/>
</g>
<!-- 27 -->
<g id="node27" class="node"><title>27</title>
<ellipse fill="none" stroke="black" cx="207" cy="-382" rx="27" ry="19.0919"/>
<text text-anchor="middle" x="207" y="-378.9" font-family="Times Roman,serif" font-size="14.00">2</text>
</g>
<!-- 26&#45;&gt;27 -->
<g id="edge27" class="edge"><title>26&#45;&gt;27</title>
<path fill="none" stroke="black" d="M144.003,-382C152.028,-382 160.967,-382 169.531,-382"/>
<polygon fill="black" stroke="black" points="169.705,-385.5 179.705,-382 169.705,-378.5 169.705,-385.5"/>
</g>
<!-- 28 -->
<g id="node28" class="node"><title>28</title>
<ellipse fill="none" stroke="black" cx="297" cy="-382" rx="27" ry="19.0919"/>
<text text-anchor="middle" x="297" y="-378.9" font-family="Times Roman,serif" font-size="14.00">3</text>
</g>
<!-- 27&#45;&gt;28 -->
<g id="edge28" class="edge"><title>27&#45;&gt;28</title>
<path fill="none" stroke="black" d="M234.003,-382C242.028,-382 250.967,-382 259.531,-382"/>
<polygon fill="black" stroke="black" points="259.705,-385.5 269.705,-382 259.705,-378.5 259.705,-385.5"/>
</g>
<!-- 29 -->
<g id="node29" class="node"><title>29</title>
<ellipse fill="none" stroke="black" cx="27" cy="-438" rx="27" ry="19.0919"/>
<text text-anchor="middle" x="27" y="-434.9" font-family="Times Roman,serif" font-size="14.00">5</text>
</g>
<!-- 30 -->
<g id="node30" class="node"><title>30</title>
<ellipse fill="none" stroke="black" cx="117" cy="-438" rx="27" ry="19.0919"/>
<text text-anchor="middle" x="117" y="-434.9" font-family="Times Roman,serif" font-size="14.00">7</text>
</g>
<!-- 29&#45;&gt;30 -->
<g id="edge30" class="edge"><title>29&#45;&gt;30</title>
<path fill="none" stroke="black" d="M54.003,-438C62.0277,-438 70.9665,-438 79.5309,-438"/>
<polygon fill="black" stroke="black" points="79.7051,-441.5 89.705,-438 79.705,-434.5 79.7051,-441.5"/>
</g>
<!-- 31 -->
<g id="node31" class="node"><title>31</title>
<ellipse fill="none" stroke="black" cx="207" cy="-438" rx="27" ry="19.0919"/>
<text text-anchor="middle" x="207" y="-434.9" font-family="Times Roman,serif" font-size="14.00">2</text>
</g>
<!-- 30&#45;&gt;31 -->
<g id="edge31" class="edge"><title>30&#45;&gt;31</title>
<path fill="none" stroke="black" d="M144.003,-438C152.028,-438 160.967,-438 169.531,-438"/>
<polygon fill="black" stroke="black" points="169.705,-441.5 179.705,-438 169.705,-434.5 169.705,-441.5"/>
</g>
<!-- 32 -->
<g id="node32" class="node"><title>32</title>
<ellipse fill="none" stroke="black" cx="297" cy="-438" rx="27" ry="19.0919"/>
<text text-anchor="middle" x="297" y="-434.9" font-family="Times Roman,serif" font-size="14.00">1</text>
</g>
<!-- 31&#45;&gt;32 -->
<g id="edge32" class="edge"><title>31&#45;&gt;32</title>
<path fill="none" stroke="black" d="M234.003,-438C242.028,-438 250.967,-438 259.531,-438"/>
<polygon fill="black" stroke="black" points="259.705,-441.5 269.705,-438 259.705,-434.5 259.705,-441.5"/>
</g>
<!-- 33 -->
<g id="node33" class="node"><title>33</title>
<ellipse fill="none" stroke="black" cx="27" cy="-494" rx="27" ry="19.0919"/>
<text text-anchor="middle" x="27" y="-490.9" font-family="Times Roman,serif" font-size="14.00">5</text>
</g>
<!-- 34 -->
<g id="node34" class="node"><title>34</title>
<ellipse fill="none" stroke="black" cx="117" cy="-494" rx="27" ry="19.0919"/>
<text text-anchor="middle" x="117" y="-490.9" font-family="Times Roman,serif" font-size="14.00">0</text>
</g>
<!-- 33&#45;&gt;34 -->
<g id="edge34" class="edge"><title>33&#45;&gt;34</title>
<path fill="none" stroke="black" d="M54.003,-494C62.0277,-494 70.9665,-494 79.5309,-494"/>
<polygon fill="black" stroke="black" points="79.7051,-497.5 89.705,-494 79.705,-490.5 79.7051,-497.5"/>
</g>
<!-- 35 -->
<g id="node35" class="node"><title>35</title>
<ellipse fill="none" stroke="black" cx="207" cy="-494" rx="27" ry="19.0919"/>
<text text-anchor="middle" x="207" y="-490.9" font-family="Times Roman,serif" font-size="14.00">4</text>
</g>
<!-- 34&#45;&gt;35 -->
<g id="edge35" class="edge"><title>34&#45;&gt;35</title>
<path fill="none" stroke="black" d="M144.003,-494C152.028,-494 160.967,-494 169.531,-494"/>
<polygon fill="black" stroke="black" points="169.705,-497.5 179.705,-494 169.705,-490.5 169.705,-497.5"/>
</g>
<!-- 36 -->
<g id="node36" class="node"><title>36</title>
<ellipse fill="none" stroke="black" cx="297" cy="-494" rx="27" ry="19.0919"/>
<text text-anchor="middle" x="297" y="-490.9" font-family="Times Roman,serif" font-size="14.00">9</text>
</g>
<!-- 35&#45;&gt;36 -->
<g id="edge36" class="edge"><title>35&#45;&gt;36</title>
<path fill="none" stroke="black" d="M234.003,-494C242.028,-494 250.967,-494 259.531,-494"/>
<polygon fill="black" stroke="black" points="259.705,-497.5 269.705,-494 259.705,-490.5 259.705,-497.5"/>
</g>
<!-- 37 -->
<g id="node37" class="node"><title>37</title>
<ellipse fill="none" stroke="black" cx="27" cy="-550" rx="27" ry="19.0919"/>
<text text-anchor="middle" x="27" y="-546.9" font-family="Times Roman,serif" font-size="14.00">5</text>
</g>
<!-- 38 -->
<g id="node38" class="node"><title>38</title>
<ellipse fill="none" stroke="black" cx="117" cy="-550" rx="27" ry="19.0919"/>
<text text-anchor="middle" x="117" y="-546.9" font-family="Times Roman,serif" font-size="14.00">0</text>
</g>
<!-- 37&#45;&gt;38 -->
<g id="edge38" class="edge"><title>37&#45;&gt;38</title>
<path fill="none" stroke="black" d="M54.003,-550C62.0277,-550 70.9665,-550 79.5309,-550"/>
<polygon fill="black" stroke="black" points="79.7051,-553.5 89.705,-550 79.705,-546.5 79.7051,-553.5"/>
</g>
<!-- 39 -->
<g id="node39" class="node"><title>39</title>
<ellipse fill="none" stroke="black" cx="207" cy="-550" rx="27" ry="19.0919"/>
<text text-anchor="middle" x="207" y="-546.9" font-family="Times Roman,serif" font-size="14.00">4</text>
</g>
<!-- 38&#45;&gt;39 -->
<g id="edge39" class="edge"><title>38&#45;&gt;39</title>
<path fill="none" stroke="black" d="M144.003,-550C152.028,-550 160.967,-550 169.531,-550"/>
<polygon fill="black" stroke="black" points="169.705,-553.5 179.705,-550 169.705,-546.5 169.705,-553.5"/>
</g>
<!-- 40 -->
<g id="node40" class="node"><title>40</title>
<ellipse fill="none" stroke="black" cx="297" cy="-550" rx="27" ry="19.0919"/>
<text text-anchor="middle" x="297" y="-546.9" font-family="Times Roman,serif" font-size="14.00">3</text>
</g>
<!-- 39&#45;&gt;40 -->
<g id="edge40" class="edge"><title>39&#45;&gt;40</title>
<path fill="none" stroke="black" d="M234.003,-550C242.028,-550 250.967,-550 259.531,-550"/>
<polygon fill="black" stroke="black" points="259.705,-553.5 269.705,-550 259.705,-546.5 259.705,-553.5"/>
</g>
<!-- 41 -->
<g id="node41" class="node"><title>41</title>
<ellipse fill="none" stroke="black" cx="27" cy="-606" rx="27" ry="19.0919"/>
<text text-anchor="middle" x="27" y="-602.9" font-family="Times Roman,serif" font-size="14.00">5</text>
</g>
<!-- 42 -->
<g id="node42" class="node"><title>42</title>
<ellipse fill="none" stroke="black" cx="117" cy="-606" rx="27" ry="19.0919"/>
<text text-anchor="middle" x="117" y="-602.9" font-family="Times Roman,serif" font-size="14.00">0</text>
</g>
<!-- 41&#45;&gt;42 -->
<g id="edge42" class="edge"><title>41&#45;&gt;42</title>
<path fill="none" stroke="black" d="M54.003,-606C62.0277,-606 70.9665,-606 79.5309,-606"/>
<polygon fill="black" stroke="black" points="79.7051,-609.5 89.705,-606 79.705,-602.5 79.7051,-609.5"/>
</g>
<!-- 43 -->
<g id="node43" class="node"><title>43</title>
<ellipse fill="none" stroke="black" cx="207" cy="-606" rx="27" ry="19.0919"/>
<text text-anchor="middle" x="207" y="-602.9" font-family="Times Roman,serif" font-size="14.00">1</text>
</g>
<!-- 42&#45;&gt;43 -->
<g id="edge43" class="edge"><title>42&#45;&gt;43</title>
<path fill="none" stroke="black" d="M144.003,-606C152.028,-606 160.967,-606 169.531,-606"/>
<polygon fill="black" stroke="black" points="169.705,-609.5 179.705,-606 169.705,-602.5 169.705,-609.5"/>
</g>
<!-- 44 -->
<g id="node44" class="node"><title>44</title>
<ellipse fill="none" stroke="black" cx="297" cy="-606" rx="27" ry="19.0919"/>
<text text-anchor="middle" x="297" y="-602.9" font-family="Times Roman,serif" font-size="14.00">6</text>
</g>
<!-- 43&#45;&gt;44 -->
<g id="edge44" class="edge"><title>43&#45;&gt;44</title>
<path fill="none" stroke="black" d="M234.003,-606C242.028,-606 250.967,-606 259.531,-606"/>
<polygon fill="black" stroke="black" points="259.705,-609.5 269.705,-606 259.705,-602.5 259.705,-609.5"/>
</g>
<!-- 45 -->
<g id="node45" class="node"><title>45</title>
<ellipse fill="none" stroke="black" cx="27" cy="-662" rx="27" ry="19.0919"/>
<text text-anchor="middle" x="27" y="-658.9" font-family="Times Roman,serif" font-size="14.00">5</text>
</g>
<!-- 46 -->
<g id="node46" class="node"><title>46</title>
<ellipse fill="none" stroke="black" cx="117" cy="-662" rx="27" ry="19.0919"/>
<text text-anchor="middle" x="117" y="-658.9" font-family="Times Roman,serif" font-size="14.00">0</text>
</g>
<!-- 45&#45;&gt;46 -->
<g id="edge46" class="edge"><title>45&#45;&gt;46</title>
<path fill="none" stroke="black" d="M54.003,-662C62.0277,-662 70.9665,-662 79.5309,-662"/>
<polygon fill="black" stroke="black" points="79.7051,-665.5 89.705,-662 79.705,-658.5 79.7051,-665.5"/>
</g>
<!-- 47 -->
<g id="node47" class="node"><title>47</title>
<ellipse fill="none" stroke="black" cx="207" cy="-662" rx="27" ry="19.0919"/>
<text text-anchor="middle" x="207" y="-658.9" font-family="Times Roman,serif" font-size="14.00">1</text>
</g>
<!-- 46&#45;&gt;47 -->
<g id="edge47" class="edge"><title>46&#45;&gt;47</title>
<path fill="none" stroke="black" d="M144.003,-662C152.028,-662 160.967,-662 169.531,-662"/>
<polygon fill="black" stroke="black" points="169.705,-665.5 179.705,-662 169.705,-658.5 169.705,-665.5"/>
</g>
<!-- 48 -->
<g id="node48" class="node"><title>48</title>
<ellipse fill="none" stroke="black" cx="297" cy="-662" rx="27" ry="19.0919"/>
<text text-anchor="middle" x="297" y="-658.9" font-family="Times Roman,serif" font-size="14.00">2</text>
</g>
<!-- 47&#45;&gt;48 -->
<g id="edge48" class="edge"><title>47&#45;&gt;48</title>
<path fill="none" stroke="black" d="M234.003,-662C242.028,-662 250.967,-662 259.531,-662"/>
<polygon fill="black" stroke="black" points="259.705,-665.5 269.705,-662 259.705,-658.5 259.705,-665.5"/>
</g>
</g>
</svg>
